<svg version="1.1" viewBox="0.0 0.0 331.90288713910763 100.0" fill="none" stroke="none" stroke-linecap="square" stroke-miterlimit="10" xmlns:xlink="http://www.w3.org/1999/xlink" xmlns="http://www.w3.org/2000/svg"><clipPath id="p.0"><path d="m0 0l331.9029 0l0 100.0l-331.9029 0l0 -100.0z" clip-rule="nonzero"/></clipPath><g clip-path="url(#p.0)"><path fill="#000000" fill-opacity="0.0" d="m0 0l331.9029 0l0 100.0l-331.9029 0z" fill-rule="evenodd"/><path fill="#000000" fill-opacity="0.0" d="m111.14747 17.152231l267.937 0l0 65.07087l-267.937 0z" fill-rule="evenodd"/><path fill="#434343" d="m128.63185 40.572037q-2.8437576 0 -5.2343826 -1.0625q-2.375 -1.0625 -3.890625 -3.015625l3.59375 -4.328125q2.28125 3.078125 5.2031326 3.078125q3.96875 0 3.96875 -4.640625l0 -13.3125l-9.843758 0l0 -5.203125l16.281258 0l0 18.15625q0 5.15625 -2.5625 7.75q-2.5625 2.578125 -7.515625 2.578125zm34.321228 -6.484375l-13.0 0l-2.484375 6.0l-6.640625 0l12.484375 -28.0l6.390625 0l12.53125 28.0l-6.8125 0l-2.46875 -6.0zm-2.046875 -4.921875l-4.4375 -10.71875l-4.4375 10.71875l8.875 0zm27.239975 11.40625q-4.28125 0 -7.75 -1.859375q-3.453125 -1.859375 -5.4375 -5.15625q-1.96875 -3.3125 -1.96875 -7.46875q0 -4.15625 1.96875 -7.453125q1.984375 -3.3125 5.4375 -5.171875q3.46875 -1.859375 7.796875 -1.859375q3.640625 0 6.578125 1.28125q2.9375 1.28125 4.9375 3.6875l-4.15625 3.828125q-2.84375 -3.265625 -7.046875 -3.265625q-2.59375 0 -4.640625 1.140625q-2.03125 1.125 -3.171875 3.171875q-1.140625 2.046875 -1.140625 4.640625q0 2.59375 1.140625 4.640625q1.140625 2.046875 3.171875 3.1875q2.046875 1.125 4.640625 1.125q4.203125 0 7.046875 -3.3125l4.15625 3.84375q-2.0 2.4375 -4.96875 3.71875q-2.953125 1.28125 -6.59375 1.28125zm26.116852 -11.484375l-3.75 3.921875l0 7.078125l-6.453125 0l0 -28.0l6.453125 0l0 13.078125l12.390625 -13.078125l7.203125 0l-11.59375 12.484375l12.28125 15.515625l-7.5625 0l-8.96875 -11.0zm27.99997 11.484375q-3.3125 0 -6.421875 -0.890625q-3.09375 -0.90625 -4.96875 -2.359375l2.1875 -4.875q1.8125 1.328125 4.28125 2.125q2.484375 0.796875 4.96875 0.796875q2.75 0 4.0625 -0.8125q1.328125 -0.828125 1.328125 -2.1875q0 -1.0 -0.78125 -1.65625q-0.765625 -0.671875 -2.0 -1.0625q-1.21875 -0.40625 -3.296875 -0.875q-3.1875 -0.765625 -5.234375 -1.515625q-2.046875 -0.765625 -3.5 -2.4375q-1.453125 -1.6875 -1.453125 -4.5q0 -2.4375 1.3125 -4.40625q1.3125 -1.984375 3.96875 -3.140625q2.671875 -1.171875 6.515625 -1.171875q2.671875 0 5.234375 0.640625q2.5625 0.640625 4.484375 1.84375l-2.0 4.921875q-3.890625 -2.203125 -7.765625 -2.203125q-2.71875 0 -4.015625 0.890625q-1.296875 0.875 -1.296875 2.3125q0 1.4375 1.5 2.140625q1.5 0.703125 4.578125 1.375q3.203125 0.765625 5.234375 1.53125q2.046875 0.75 3.5 2.390625q1.46875 1.640625 1.46875 4.4375q0 2.40625 -1.34375 4.390625q-1.34375 1.96875 -4.03125 3.140625q-2.671875 1.15625 -6.515625 1.15625zm29.879333 0q-4.359375 0 -7.859375 -1.875q-3.5 -1.890625 -5.484375 -5.1875q-1.96875 -3.296875 -1.96875 -7.421875q0 -4.125 1.96875 -7.421875q1.984375 -3.296875 5.484375 -5.171875q3.5 -1.890625 7.859375 -1.890625q4.359375 0 7.84375 1.890625q3.484375 1.875 5.484375 5.171875q2.0 3.296875 2.0 7.421875q0 4.125 -2.0 7.421875q-2.0 3.296875 -5.484375 5.1875q-3.484375 1.875 -7.84375 1.875zm0 -5.53125q2.484375 0 4.484375 -1.125q2.0 -1.140625 3.140625 -3.1875q1.140625 -2.046875 1.140625 -4.640625q0 -2.59375 -1.140625 -4.640625q-1.140625 -2.046875 -3.140625 -3.171875q-2.0 -1.140625 -4.484375 -1.140625q-2.46875 0 -4.46875 1.140625q-2.0 1.125 -3.140625 3.171875q-1.140625 2.046875 -1.140625 4.640625q0 2.59375 1.140625 4.640625q1.140625 2.046875 3.140625 3.1875q2.0 1.125 4.46875 1.125zm45.88498 -22.953125l0 28.0l-5.3125 0l-13.96875 -17.0l0 17.0l-6.40625 0l0 -28.0l5.375 0l13.90625 17.0l0 -17.0l6.40625 0z" fill-rule="nonzero"/><path fill="#434343" d="m165.7881 60.087654l-9.15625 28.0l-6.96875 0l-6.15625 -18.953125l-6.359375 18.953125l-6.921875 0l-9.203133 -28.0l6.71875 0l6.3281326 19.6875l6.59375 -19.6875l6.0 0l6.40625 19.84375l6.515625 -19.84375l6.203125 0zm3.5918274 0l6.484375 0l0 28.0l-6.484375 0l0 -28.0zm13.119995 0l6.484375 0l0 22.71875l14.046875 0l0 5.28125l-20.53125 0l0 -28.0zm24.159973 0l12.734375 0q4.546875 0 8.046875 1.75q3.5 1.734375 5.4375 4.890625q1.953125 3.15625 1.953125 7.359375q0 4.203125 -1.953125 7.359375q-1.9375 3.15625 -5.4375 4.90625q-3.5 1.734375 -8.046875 1.734375l-12.734375 0l0 -28.0zm12.40625 22.6875q4.203125 0 6.703125 -2.34375q2.5 -2.34375 2.5 -6.34375q0 -4.0 -2.5 -6.34375q-2.5 -2.34375 -6.703125 -2.34375l-5.921875 0l0 17.375l5.921875 0zm20.633713 -22.6875l6.484375 0l0 28.0l-6.484375 0l0 -28.0zm38.807495 0l0 28.0l-5.3125 0l-13.96875 -17.0l0 17.0l-6.40625 0l0 -28.0l5.375 0l13.90625 17.0l0 -17.0l6.40625 0zm25.554352 13.5625l5.921875 0l0 11.359375q-2.28125 1.71875 -5.28125 2.640625q-3.0 0.921875 -6.03125 0.921875q-4.359375 0 -7.84375 -1.859375q-3.484375 -1.859375 -5.46875 -5.15625q-1.96875 -3.3125 -1.96875 -7.46875q0 -4.15625 1.96875 -7.453125q1.984375 -3.3125 5.5 -5.171875q3.53125 -1.859375 7.921875 -1.859375q3.6875 0 6.6875 1.25q3.0 1.234375 5.046875 3.59375l-4.171875 3.84375q-3.0 -3.15625 -7.234375 -3.15625q-2.6875 0 -4.765625 1.125q-2.078125 1.109375 -3.234375 3.15625q-1.15625 2.03125 -1.15625 4.671875q0 2.59375 1.15625 4.640625q1.15625 2.046875 3.21875 3.1875q2.0625 1.125 4.703125 1.125q2.796875 0 5.03125 -1.1875l0 -8.203125z" fill-rule="nonzero"/><path fill="#000000" fill-opacity="0.0" d="m7.9994454 6.269184l86.3937 0l0 86.83464l-86.3937 0z" fill-rule="evenodd"/><path stroke="#434343" stroke-width="4.0" stroke-linejoin="round" stroke-linecap="butt" d="m7.9994454 6.269184l86.3937 0l0 86.83464l-86.3937 0z" fill-rule="evenodd"/><path fill="#000000" fill-opacity="0.0" d="m80.220474 20.66279l-58.047245 58.04725" fill-rule="evenodd"/><path stroke="#434343" stroke-width="4.0" stroke-linejoin="round" stroke-linecap="butt" d="m80.220474 20.66279l-58.047245 58.04725" fill-rule="evenodd"/><path fill="#000000" fill-opacity="0.0" d="m13.639781 20.956284l35.65354 0l0 24.850395l-35.65354 0z" fill-rule="evenodd"/><path fill="#434343" d="m29.912313 43.29398q-1.890625 0 -3.484375 -0.703125q-1.578125 -0.703125 -2.59375 -2.015625l2.390625 -2.875q1.515625 2.0625 3.46875 2.0625q2.640627 0 2.640627 -3.09375l0 -8.875l-6.562502 0l0 -3.46875l10.859377 0l0 12.09375q0 3.4375 -1.71875 5.15625q-1.703125 1.71875 -5.000002 1.71875z" fill-rule="nonzero"/><path fill="#000000" fill-opacity="0.0" d="m53.11853 53.744278l35.65354 0l0 26.67717l-35.65354 0z" fill-rule="evenodd"/><path fill="#434343" d="m85.86663 58.02661l-6.109375 18.65625l-4.640625 0l-4.109375 -12.640625l-4.234375 12.640625l-4.609379 0l-6.125 -18.65625l4.46875 0l4.218754 13.109375l4.390625 -13.109375l4.0 0l4.265625 13.21875l4.34375 -13.21875l4.140625 0z" fill-rule="nonzero"/></g></svg>