<svg version="1.1" viewBox="0.0 0.0 100.0 100.0" fill="none" stroke="none" stroke-linecap="square" stroke-miterlimit="10" xmlns:xlink="http://www.w3.org/1999/xlink" xmlns="http://www.w3.org/2000/svg"><clipPath id="p.0"><path d="m0 0l100.0 0l0 100.0l-100.0 0l0 -100.0z" clip-rule="nonzero"/></clipPath><g clip-path="url(#p.0)"><path fill="#000000" fill-opacity="0.0" d="m0 0l100.0 0l0 100.0l-100.0 0z" fill-rule="evenodd"/><path fill="#000000" fill-opacity="0.0" d="m83.595245 16.405521l-67.18111 67.18111" fill-rule="evenodd"/><path stroke="#ffffff" stroke-width="4.0" stroke-linejoin="round" stroke-linecap="butt" d="m83.595245 16.405521l-67.18111 67.18111" fill-rule="evenodd"/><path fill="#000000" fill-opacity="0.0" d="m6.5286384 16.745237l41.259846 0l0 28.755907l-41.259846 0z" fill-rule="evenodd"/><path fill="#ffffff" d="m25.44406 42.142567q-2.078125 0 -3.828125 -0.78125q-1.75 -0.78125 -2.859375 -2.21875l2.640625 -3.171875q1.671875 2.265625 3.8125 2.265625q2.90625 0 2.90625 -3.40625l0 -9.765627l-7.21875 0l0 -3.8125l11.937498 0l0 13.312502q0 3.78125 -1.8749981 5.6875q-1.875 1.890625 -5.515625 1.890625z" fill-rule="nonzero"/><path fill="#000000" fill-opacity="0.0" d="m52.224968 54.697075l41.259842 0l0 30.897636l-41.259842 0z" fill-rule="evenodd"/><path fill="#ffffff" d="m89.26934 60.274643l-6.71875 20.53125l-5.109375 0l-4.515625 -13.90625l-4.65625 13.90625l-5.078125 0l-6.75 -20.53125l4.9375 0l4.625 14.4375l4.84375 -14.4375l4.390625 0l4.703125 14.546875l4.78125 -14.546875l4.546875 0z" fill-rule="nonzero"/></g></svg>