<svg version="1.1" viewBox="0.0 0.0 120.1758530183727 100.0" fill="none" stroke="none" stroke-linecap="square" stroke-miterlimit="10" xmlns:xlink="http://www.w3.org/1999/xlink" xmlns="http://www.w3.org/2000/svg"><clipPath id="p.0"><path d="m0 0l120.17585 0l0 100.0l-120.17585 0l0 -100.0z" clip-rule="nonzero"/></clipPath><g clip-path="url(#p.0)"><path fill="#000000" fill-opacity="0.0" d="m0 0l120.17585 0l0 100.0l-120.17585 0z" fill-rule="evenodd"/><path fill="#000000" fill-opacity="0.0" d="m106.50015 4.3800416l-92.8189 92.81889" fill-rule="evenodd"/><path stroke="#000000" stroke-width="8.0" stroke-linejoin="round" stroke-linecap="butt" d="m106.50015 4.3800416l-92.8189 92.81889" fill-rule="evenodd"/><path fill="#000000" fill-opacity="0.0" d="m-0.007864042 4.8495336l57.007877 0l0 39.74803l-57.007877 0z" fill-rule="evenodd"/><path fill="#000000" d="m26.160456 39.60792q-2.84375 0 -5.234375 -1.0625q-2.375 -1.0625 -3.890625 -3.015625l3.59375 -4.328125q2.28125 3.078125 5.203125 3.078125q3.96875 0 3.96875 -4.640625l0 -13.3125l-9.84375 0l0 -5.203125l16.281248 0l0 18.15625q0 5.15625 -2.5625 7.75q-2.562498 2.578125 -7.515623 2.578125z" fill-rule="nonzero"/><path fill="#000000" fill-opacity="0.0" d="m63.14563 57.29932l57.007874 0l0 42.70866l-57.007874 0z" fill-rule="evenodd"/><path fill="#000000" d="m114.03021 65.05365l-9.15625 28.0l-6.96875 0l-6.15625 -18.953125l-6.359375 18.953125l-6.921875 0l-9.203125 -28.0l6.71875 0l6.328125 19.6875l6.59375 -19.6875l6.0 0l6.40625 19.84375l6.515625 -19.84375l6.203125 0z" fill-rule="nonzero"/></g></svg>